<?xml version="1.0" standalone="no"?>
<!DOCTYPE svg PUBLIC "-//W3C//DTD SVG 20010904//EN"
 "http://www.w3.org/TR/2001/REC-SVG-20010904/DTD/svg10.dtd">
<svg version="1.0" xmlns="http://www.w3.org/2000/svg"
 width="221.687872pt" height="417.197965pt" viewBox="0 0 221.687872 417.197965"
 preserveAspectRatio="xMidYMid meet">
<metadata>
Created by potrace 1.12, written by Peter Selinger 2001-2015
</metadata>
<g transform="translate(-374.694761,778.759285) scale(0.100000,-0.100000)"
fill="#000000" stroke="none">
<path d="M4847 7703 c-4 -48 -9 -155 -13 -238 -8 -209 -17 -251 -84 -396 -33
-69 -64 -145 -69 -170 -23 -98 -9 -195 46 -323 18 -43 32 -81 30 -83 -10 -9
-87 120 -105 177 -35 108 -42 181 -49 530 -7 318 -8 330 -19 245 -6 -49 -18
-176 -25 -282 -17 -260 -3 -400 56 -537 7 -16 1 -15 -45 10 -66 36 -117 86
-141 140 -22 49 -39 212 -40 394 0 102 -3 129 -10 110 -14 -33 -29 -578 -19
-677 14 -137 66 -258 142 -329 18 -17 67 -54 109 -82 66 -44 105 -82 134 -132
5 -8 -13 4 -40 28 -27 24 -78 60 -113 79 -148 83 -210 155 -267 316 -45 125
-70 225 -94 376 -34 208 -39 165 -10 -94 15 -132 36 -228 76 -340 26 -73 39
-134 49 -225 27 -242 75 -328 249 -445 74 -49 121 -95 150 -144 4 -7 -17 7
-48 32 -30 25 -84 60 -118 78 -35 19 -92 61 -127 94 -54 50 -73 77 -118 171
-60 123 -129 323 -165 476 -13 54 -25 96 -27 93 -2 -2 4 -52 13 -111 23 -146
88 -377 137 -487 33 -75 42 -109 49 -187 13 -134 25 -187 60 -260 43 -91 88
-141 183 -205 74 -49 166 -133 166 -151 0 -7 -2 -5 -70 48 -25 19 -78 54 -118
77 -100 58 -169 129 -220 227 -59 115 -123 284 -176 464 -51 175 -57 174 -21
-4 30 -148 104 -382 155 -491 32 -68 38 -94 43 -171 9 -121 23 -186 58 -260
35 -74 122 -160 226 -222 80 -47 121 -91 160 -170 22 -46 27 -70 31 -173 l5
-119 32 0 33 0 4 123 c4 112 7 127 35 182 38 72 83 116 184 178 169 103 235
226 254 472 6 69 14 103 35 146 60 117 142 389 175 576 22 129 19 124 -30 -44
-57 -194 -104 -320 -170 -459 -65 -134 -109 -182 -240 -259 -51 -31 -112 -71
-135 -90 -48 -40 -55 -43 -40 -15 20 36 75 85 146 127 120 71 203 178 234 304
6 24 17 94 24 154 11 87 22 130 56 208 46 111 125 407 134 507 6 62 5 60 -29
-58 -19 -68 -49 -165 -65 -215 -36 -107 -138 -322 -168 -353 -39 -41 -108 -92
-181 -134 -41 -24 -94 -61 -118 -83 -48 -45 -55 -39 -18 15 14 21 66 64 122
101 54 35 115 83 135 105 74 82 113 190 127 348 7 73 20 130 50 219 47 138 79
314 86 465 l5 105 -25 -140 c-31 -174 -84 -354 -135 -462 -46 -94 -99 -145
-220 -213 -41 -23 -96 -60 -122 -82 -27 -21 -48 -35 -48 -31 0 23 69 87 159
147 143 96 193 169 226 335 15 71 16 127 12 390 -3 168 -10 322 -15 341 -8 28
-10 12 -11 -85 -1 -135 -17 -332 -32 -386 -12 -48 -80 -123 -143 -159 -28 -17
-54 -30 -57 -30 -4 0 4 26 16 58 40 98 48 176 42 416 -4 191 -28 441 -43 456
-3 2 -2 -70 2 -160 7 -195 -9 -540 -31 -625 -18 -71 -84 -207 -120 -250 l-26
-30 17 40 c9 22 30 74 47 115 29 69 32 84 32 185 l0 110 -57 120 c-82 175 -86
194 -98 485 -6 140 -12 256 -14 258 -2 1 -6 -37 -9 -85z m61 -671 c77 -158 86
-262 33 -374 l-21 -43 5 75 c2 41 1 93 -3 115 l-8 40 -8 -60 c-4 -33 -14 -87
-21 -120 l-13 -60 -1 95 c-2 143 -13 267 -22 243 -4 -11 -11 -94 -15 -184 l-8
-164 -18 90 c-9 50 -18 106 -19 125 l-1 35 -10 -35 c-6 -19 -8 -68 -5 -109 4
-64 3 -71 -9 -50 -7 13 -18 55 -25 92 -17 91 -3 162 55 280 25 51 46 99 46
105 0 30 19 3 68 -96z m-358 -457 c36 -20 88 -56 115 -80 84 -71 142 -202 150
-335 l5 -75 -13 55 c-32 131 -78 228 -134 281 l-36 34 28 -50 c16 -27 31 -54
35 -60 3 -5 12 -23 18 -38 15 -34 -201 187 -236 242 -18 28 -22 30 -17 11 13
-45 52 -104 134 -198 45 -51 81 -95 81 -98 0 -3 -40 32 -90 78 -49 45 -90 87
-90 92 0 5 -3 7 -6 4 -8 -9 42 -86 85 -132 22 -24 28 -35 15 -28 -38 20 -106
104 -135 167 -26 58 -49 157 -49 215 0 24 1 23 38 -12 20 -19 66 -52 102 -73z
m725 -53 c-25 -84 -61 -149 -112 -198 -61 -60 -77 -56 -20 4 24 27 53 64 62
83 16 31 11 28 -46 -26 -147 -139 -156 -139 -37 -3 37 43 79 101 93 130 l26
53 -27 -35 c-15 -19 -63 -69 -106 -110 -42 -41 -92 -93 -109 -115 -52 -66 -24
4 50 125 12 20 8 19 -22 -9 -49 -46 -101 -149 -122 -241 -23 -101 -23 -102
-24 -45 -2 118 57 263 139 345 25 25 78 63 118 85 41 21 90 54 110 71 l37 32
3 -45 c2 -24 -4 -69 -13 -101z m-840 -322 c10 -11 63 -47 118 -81 55 -34 117
-79 138 -101 72 -75 130 -233 128 -348 -1 -25 -3 -36 -6 -25 -37 169 -54 211
-114 293 -49 65 -68 68 -29 5 16 -27 37 -66 45 -88 l17 -40 -33 40 c-18 22
-71 79 -117 127 -47 48 -95 104 -108 125 -31 50 -30 35 1 -31 14 -29 55 -88
93 -130 116 -134 120 -144 19 -53 -53 49 -97 85 -97 80 0 -14 30 -54 74 -102
23 -25 32 -39 20 -33 -62 32 -142 154 -162 247 -29 131 -26 158 13 115z m855
-94 c-20 -103 -83 -209 -153 -258 -29 -20 -28 -18 10 24 23 25 49 61 59 79 15
31 11 28 -52 -28 -38 -33 -78 -70 -88 -82 -11 -11 -23 -21 -28 -21 -5 0 28 43
74 95 76 88 138 176 138 199 0 6 -11 -4 -23 -22 -34 -46 -257 -274 -249 -254
14 33 55 108 75 136 l20 29 -26 -18 c-53 -35 -124 -174 -151 -297 -11 -51 -14
-56 -15 -28 -3 115 51 264 127 351 22 24 80 68 130 98 50 29 106 66 124 81
l33 28 3 -26 c2 -15 -2 -53 -8 -86z m-734 -445 c56 -34 118 -79 138 -101 72
-80 127 -228 125 -340 -1 -43 -1 -42 -16 24 -20 98 -56 180 -104 242 -48 62
-72 72 -38 17 26 -43 32 -54 54 -103 16 -34 16 -34 -24 11 -22 25 -70 75 -107
110 -36 35 -82 86 -100 114 -19 27 -34 46 -34 41 0 -23 68 -131 119 -188 32
-36 68 -80 81 -99 22 -32 20 -31 -26 11 -27 25 -69 63 -93 85 l-44 40 19 -34
c10 -18 37 -54 59 -79 38 -44 39 -46 8 -24 -90 63 -150 182 -168 332 l-7 55
28 -27 c16 -14 75 -54 130 -87z m741 27 c-8 -94 -56 -194 -126 -263 -28 -27
-51 -45 -51 -39 0 6 14 23 31 40 29 27 59 74 59 91 0 4 -24 -15 -52 -42 -152
-144 -159 -143 -31 3 47 53 96 120 109 147 l25 50 -28 -35 c-14 -19 -68 -75
-120 -125 -51 -49 -104 -105 -118 -124 -14 -19 -25 -32 -25 -28 0 10 53 113
81 157 l22 35 -41 -39 c-55 -52 -98 -137 -128 -249 l-24 -92 6 74 c7 94 34
181 78 251 41 65 81 99 191 163 44 26 94 58 110 72 17 13 32 24 34 25 2 0 1
-33 -2 -72z m-676 -523 c108 -69 179 -200 194 -357 l6 -63 -26 85 c-32 105
-76 187 -122 231 l-35 34 47 -87 47 -88 -110 108 c-60 59 -124 127 -142 152
-23 33 -30 38 -25 20 11 -39 68 -122 132 -192 112 -122 95 -114 -49 22 -27 24
-48 41 -48 36 0 -16 73 -117 92 -127 11 -6 17 -13 15 -16 -11 -10 -76 49 -112
101 -40 59 -69 142 -80 229 l-7 58 80 -53 c44 -29 108 -71 143 -93z m669 23
c-20 -97 -78 -192 -152 -249 l-43 -34 42 48 c23 27 51 64 62 83 17 29 2 19
-82 -53 -103 -89 -99 -81 30 65 74 83 86 101 103 149 l10 28 -17 -25 c-9 -14
-75 -83 -146 -155 -131 -132 -145 -135 -66 -12 44 67 37 74 -16 16 -45 -51
-88 -139 -115 -239 l-20 -75 6 75 c3 41 14 101 25 133 40 119 98 183 244 268
56 33 111 69 121 81 19 20 19 20 22 -17 2 -20 -2 -59 -8 -87z"/>
<path d="M5667 5487 c-52 -167 -141 -333 -246 -457 -25 -30 -109 -120 -187
-200 -125 -131 -145 -156 -187 -240 -31 -63 -51 -120 -59 -169 -12 -68 -11
-74 7 -87 28 -21 33 -18 40 25 9 51 57 152 103 215 20 28 91 107 157 176 223
233 327 425 385 709 11 57 20 107 18 111 -2 5 -16 -33 -31 -83z"/>
<path d="M4011 5548 c-3 -69 67 -293 130 -421 85 -170 142 -246 321 -433 116
-121 172 -204 200 -299 11 -38 22 -71 24 -73 1 -2 12 2 24 8 20 11 22 17 16
62 -20 150 -94 273 -283 469 -80 84 -173 189 -206 233 -65 89 -163 281 -201
396 -14 41 -25 67 -25 58z"/>
<path d="M3983 4336 c-231 -75 -313 -377 -152 -560 49 -56 143 -103 222 -112
109 -13 239 42 303 127 52 68 68 118 68 214 1 79 -2 97 -27 147 -35 71 -92
130 -159 164 -64 33 -186 43 -255 20z m232 -63 c174 -90 218 -319 88 -463 -63
-71 -119 -95 -218 -94 -122 0 -200 48 -254 156 -25 50 -31 74 -31 128 0 141
63 233 195 287 46 19 172 11 220 -14z"/>
<path d="M4077 4213 c-3 -5 -7 -21 -8 -38 -3 -25 -1 -29 16 -27 26 5 26 4 19
40 -6 31 -18 41 -27 25z"/>
<path d="M3941 4138 c22 -43 29 -48 50 -35 25 16 24 20 -10 40 -41 24 -55 22
-40 -5z"/>
<path d="M4190 4140 c-23 -18 -24 -20 -9 -35 15 -15 18 -14 38 11 36 46 19 61
-29 24z"/>
<path d="M4022 4104 c-73 -51 -66 -161 14 -199 81 -38 164 13 164 101 0 39 -5
51 -34 80 -28 28 -41 34 -78 34 -24 0 -54 -7 -66 -16z"/>
<path d="M3915 4023 c-57 -11 -56 -25 3 -38 28 -6 32 -4 32 14 0 23 -8 29 -35
24z"/>
<path d="M4230 4006 c0 -24 3 -26 28 -20 28 7 49 21 41 28 -2 2 -19 7 -36 11
-31 6 -33 5 -33 -19z"/>
<path d="M3952 3895 c-19 -41 -14 -47 21 -29 43 22 43 22 21 39 -26 20 -29 19
-42 -10z"/>
<path d="M4182 3908 c-18 -18 -15 -26 19 -43 39 -21 46 -14 23 24 -20 34 -25
36 -42 19z"/>
<path d="M4069 3863 c-5 -34 13 -85 25 -72 2 2 7 21 11 42 7 33 5 37 -14 37
-11 0 -21 -3 -22 -7z"/>
<path d="M5503 4329 c-29 -11 -75 -41 -103 -66 -182 -164 -144 -453 74 -566
54 -27 71 -31 146 -32 72 0 94 4 141 26 79 37 133 90 171 166 27 55 32 76 32
141 0 113 -23 172 -98 248 -45 46 -76 67 -119 83 -75 27 -173 27 -244 0z m220
-45 c63 -21 130 -83 164 -152 23 -46 28 -70 28 -127 -1 -118 -58 -210 -163
-262 -48 -23 -69 -28 -132 -27 -83 0 -131 19 -194 75 -90 78 -117 230 -63 341
33 66 100 130 160 152 56 19 143 20 200 0z"/>
<path d="M5580 4220 c-18 -18 -20 -33 -20 -140 0 -102 -3 -124 -20 -152 -28
-46 -25 -82 9 -120 25 -28 36 -33 74 -33 85 0 126 69 88 148 -17 36 -21 62
-21 154 0 96 -3 114 -21 137 -25 31 -61 34 -89 6z m70 -29 c5 -11 10 -69 10
-130 0 -93 3 -115 20 -144 48 -81 -40 -158 -105 -92 -30 29 -32 64 -5 98 18
22 20 40 20 149 0 69 3 128 7 131 13 14 43 7 53 -12z"/>
<path d="M5610 4027 c0 -81 -3 -96 -20 -112 -22 -20 -27 -64 -8 -83 18 -18 63
-14 81 6 22 25 21 48 -3 72 -17 17 -20 33 -20 115 0 78 -3 95 -15 95 -12 0
-15 -17 -15 -93z"/>
<path d="M4748 4265 c-52 -19 -123 -69 -152 -108 -79 -103 -93 -238 -37 -351
99 -202 353 -254 516 -105 79 73 110 141 110 244 0 71 -4 88 -33 147 -60 122
-167 189 -300 187 -37 0 -84 -7 -104 -14z m204 -51 c185 -63 246 -304 113
-452 -175 -194 -488 -74 -488 188 0 113 53 199 155 249 71 36 145 41 220 15z"/>
<path d="M4803 4121 c-17 -11 -36 -28 -41 -37 -6 -10 -25 -23 -43 -29 -67 -23
-96 -109 -50 -147 21 -16 43 -18 193 -18 166 0 169 0 193 25 28 27 31 54 11
94 -14 26 -53 51 -80 51 -7 0 -19 11 -26 25 -14 27 -66 55 -102 55 -12 0 -37
-9 -55 -19z"/>
<path d="M4743 3843 c-29 -29 -30 -63 -3 -63 24 0 33 17 28 57 l-3 28 -22 -22z"/>
<path d="M4953 3845 c-30 -21 -31 -65 -3 -65 20 0 35 33 28 64 -3 15 -5 15
-25 1z"/>
<path d="M4836 3818 c-18 -26 -21 -54 -6 -63 18 -11 38 13 42 50 5 41 -13 47
-36 13z"/>
</g>
</svg>
